<?xml version="1.0" encoding="UTF-8" standalone="no"?>
<!DOCTYPE svg PUBLIC "-//W3C//DTD SVG 1.1//EN" "http://www.w3.org/Graphics/SVG/1.1/DTD/svg11.dtd">
<svg width="100%" height="100%" viewBox="0 0 18521 6267" version="1.1" xmlns="http://www.w3.org/2000/svg" xmlns:xlink="http://www.w3.org/1999/xlink" xml:space="preserve" xmlns:serif="http://www.serif.com/" style="fill-rule:evenodd;clip-rule:evenodd;">
    <g transform="matrix(4.16667,0,0,4.16667,2026.78,-1771.19)">
        <path d="M0,1480.36C-1403.08,875.619 550.472,0 1807.47,660.963C558.994,172.743 -1015.79,922.746 0,1480.36" style="fill:rgb(77,160,70);fill-rule:nonzero;"/>
    </g>
    <g transform="matrix(4.16667,0,0,4.16667,9943.98,4929.09)">
        <path d="M0,163.508C1.619,163.793 5.045,163.196 10.321,161.666C15.25,160.43 20.588,156.782 26.148,150.732C29.049,147.182 31.896,142.921 34.796,137.965C37.866,133.16 40.304,127.129 42.27,119.851C46.852,105.909 49.814,85.945 51.14,59.939C52.358,43.034 51.087,28.96 47.261,17.652C43.257,6.219 36.531,0.329 27.136,0.009C17.856,0.329 9.796,3.666 2.9,10C-4.003,16.353 -9.804,24.698 -14.608,35.09C-23.888,57.359 -28.532,78.987 -28.532,99.877C-28.532,118.623 -26.388,133.775 -22.037,145.403C-17.74,157.476 -10.383,163.508 0,163.508ZM-7.883,205.911C-25.747,205.617 -41.521,201.925 -55.259,194.817C-69.12,187.904 -80.365,178.962 -89.014,168.01C-106.639,144.878 -115.509,120.838 -115.509,95.864C-114.868,57.795 -100.669,25.508 -72.776,-1.023C-45.988,-27.821 -12.411,-41.611 27.776,-42.403C48.364,-42.403 65.812,-38.871 80.135,-31.762C94.175,-24.52 105.42,-15.418 113.943,-4.466C122.645,6.619 129.023,18.479 133.196,31.122C136.497,44.084 138.179,56.549 138.179,68.578C138.179,102.644 126.062,133.552 101.826,161.301C77.466,189.976 40.882,204.852 -7.883,205.911Z" style="fill:rgb(3,4,4);fill-rule:nonzero;stroke:rgb(3,4,5);stroke-width:1.34px;"/>
    </g>
    <g transform="matrix(4.16667,0,0,4.16667,11225,6038.62)">
        <path d="M0,-259.257C-5.276,-259.257 -10.668,-257.086 -15.997,-252.762C-21.566,-248.225 -27.305,-240.707 -33.168,-230.137C-44.876,-209.825 -52.59,-175.99 -56.362,-128.588C-49.921,-114.637 -39.432,-107.662 -24.93,-107.662C-19.538,-107.662 -13.737,-110.366 -7.59,-115.812C-2.028,-121.221 3.078,-128.685 7.713,-138.17C17.865,-157.565 23.078,-182.094 23.435,-211.756C23.719,-243.411 15.89,-259.257 0,-259.257M-29.573,-278.305C-18.729,-287.398 -6.958,-295.156 5.916,-301.589C18.505,-307.532 31.548,-310.735 45.063,-311.215C88.72,-310.735 110.704,-278.928 110.989,-215.769C110.117,-166.551 96.78,-128.525 70.979,-101.683C46.104,-74.965 20.649,-61.469 -5.392,-61.175C-28.177,-61.469 -47.955,-69.725 -64.654,-85.909L-90.455,51.958L-176.275,51.958L-109.068,-305.272L-24.761,-305.272L-29.573,-278.305Z" style="fill:rgb(3,4,4);fill-rule:nonzero;"/>
    </g>
    <g transform="matrix(4.16667,0,0,4.16667,11225,6038.62)">
        <path d="M0,-259.257C-5.276,-259.257 -10.668,-257.086 -15.997,-252.762C-21.566,-248.225 -27.305,-240.707 -33.168,-230.137C-44.876,-209.825 -52.59,-175.99 -56.362,-128.588C-49.921,-114.637 -39.432,-107.662 -24.93,-107.662C-19.538,-107.662 -13.737,-110.366 -7.59,-115.812C-2.028,-121.221 3.078,-128.685 7.713,-138.17C17.865,-157.565 23.078,-182.094 23.435,-211.756C23.719,-243.411 15.89,-259.257 0,-259.257ZM-29.573,-278.305C-18.729,-287.398 -6.958,-295.156 5.916,-301.589C18.505,-307.532 31.548,-310.735 45.063,-311.215C88.72,-310.735 110.704,-278.928 110.989,-215.769C110.117,-166.551 96.78,-128.525 70.979,-101.683C46.104,-74.965 20.649,-61.469 -5.392,-61.175C-28.177,-61.469 -47.955,-69.725 -64.654,-85.909L-90.455,51.958L-176.275,51.958L-109.068,-305.272L-24.761,-305.272L-29.573,-278.305Z" style="fill:none;stroke:rgb(3,4,5);stroke-width:1.35px;"/>
    </g>
    <g transform="matrix(4.16667,0,0,4.16667,12413.5,5617.09)">
        <path d="M0,-166.729C-13.104,-165.475 -23.604,-159.131 -31.316,-147.672C-38.968,-136.364 -44.538,-122.44 -48.132,-105.892C-2.269,-104.646 21.397,-117.04 22.848,-143.045C23.479,-150.305 21.683,-156.177 17.51,-160.688C13.159,-164.701 7.358,-166.729 0,-166.729ZM62.626,2.936C46.558,12.651 27.893,21.263 6.727,28.799C-14.323,36.486 -36.478,40.499 -59.733,40.792C-74.867,40.499 -87.447,36.806 -97.358,29.698C-107.741,23.523 -116.149,15.374 -122.528,5.195C-125.606,-0.205 -128.267,-5.445 -130.295,-10.525C-132.386,-15.775 -134.245,-20.935 -135.927,-25.998C-137.084,-31.113 -137.956,-36.033 -138.534,-40.802C-139.175,-45.135 -139.459,-49.209 -139.459,-53.062C-138.24,-80.812 -132.733,-104.628 -122.938,-124.513C-118.293,-134.665 -112.786,-143.713 -106.407,-151.569C-100.321,-159.425 -93.711,-166.373 -86.754,-172.388C-72.483,-184.71 -56.949,-193.713 -40.303,-199.434C-24.013,-204.817 -8.47,-207.521 6.38,-207.521C29.627,-207.521 48.996,-202.744 64.423,-193.171C80.073,-183.464 88.08,-167.343 88.365,-144.825C88.08,-131.897 83.961,-120.705 76.078,-111.31C68.018,-101.132 57.11,-92.725 43.373,-86.105C15.019,-72.226 -16.762,-65.589 -51.904,-66.211C-52.251,-63.729 -52.251,-59.814 -51.904,-54.378C-51.904,-48.685 -50.801,-42.831 -48.595,-36.798C-46.45,-31.104 -42.679,-26.229 -37.171,-22.243C-31.664,-17.447 -23.719,-15.054 -13.452,-15.054C-2.669,-15.054 7.421,-17.127 16.753,-21.3C26.095,-25.001 35.544,-29.565 45.224,-34.939L62.626,2.936Z" style="fill:rgb(3,4,4);fill-rule:nonzero;stroke:rgb(3,4,5);stroke-width:1.34px;"/>
    </g>
    <g transform="matrix(4.16667,0,0,4.16667,13306.7,5560.63)">
        <path d="M0,-147.458L0.935,-146.524C14.093,-162.912 28.648,-175.35 44.592,-183.829C60.366,-191.863 75.269,-195.893 89.361,-195.893C123.4,-195.893 140.447,-178.784 140.447,-144.646C140.741,-133.624 139.521,-120.402 136.853,-105.038L109.192,48.435L26.157,48.435L52.884,-101.381C53.471,-105.571 53.817,-109.548 53.817,-113.258C52.599,-123.214 50.276,-129.566 46.798,-132.36C43.204,-135.02 39.841,-136.319 36.709,-136.319C29.058,-136.319 22.447,-133.917 16.931,-129.113C11.077,-124.308 6.032,-117.929 1.797,-110.011C-6.316,-93.08 -11.824,-75.758 -14.786,-58.053L-33.746,48.435L-116.781,48.435L-73.756,-189.915L8.586,-189.915L0,-147.458Z" style="fill:rgb(3,4,4);fill-rule:nonzero;stroke:rgb(3,4,5);stroke-width:1.35px;"/>
    </g>
    <g transform="matrix(4.16667,0,0,4.16667,9860.13,4833.41)">
        <path d="M0,163.517C1.566,163.81 5.045,163.188 10.321,161.649C15.25,160.403 20.534,156.764 26.095,150.723C28.996,147.164 31.896,142.903 34.734,137.947C37.813,133.152 40.304,127.12 42.217,119.842C46.86,105.927 49.814,85.935 51.087,59.93C52.306,43.053 51.033,28.977 47.261,17.669C43.258,6.184 36.531,0.311 27.083,0.027C17.804,0.311 9.689,3.648 2.848,9.982C-3.994,16.335 -9.857,24.716 -14.671,35.081C-23.941,57.376 -28.585,78.978 -28.585,99.868C-28.585,118.597 -26.441,133.784 -22.091,145.385C-17.74,157.458 -10.436,163.517 0,163.517ZM-7.944,205.911C-25.738,205.6 -41.575,201.925 -55.312,194.834C-69.173,187.886 -80.428,178.944 -89.066,168.001C-106.691,144.887 -115.509,120.829 -115.509,95.847C-114.931,57.795 -100.659,25.499 -72.768,-1.014C-45.979,-27.82 -12.464,-41.62 27.776,-42.394C48.311,-42.394 65.758,-38.853 80.082,-31.78C94.112,-24.529 105.367,-15.427 113.943,-4.484C122.645,6.62 129.023,18.497 133.144,31.14C136.444,44.084 138.187,56.567 138.187,68.596C138.187,102.644 126.07,133.543 101.826,161.284C77.413,189.959 40.828,204.834 -7.944,205.911Z" style="fill:white;fill-rule:nonzero;stroke:rgb(3,4,5);stroke-width:10.25px;"/>
    </g>
    <g transform="matrix(4.16667,0,0,4.16667,11144.1,5944.57)">
        <path d="M0,-257.487C-5.223,-257.487 -10.499,-255.334 -15.891,-250.992C-21.397,-246.544 -27.083,-239.062 -32.875,-228.572C-44.538,-208.376 -52.243,-174.772 -55.9,-127.761C-49.521,-113.855 -39.085,-106.942 -24.707,-106.942C-19.307,-106.942 -13.631,-109.62 -7.482,-115.029C-1.976,-120.439 3.069,-127.832 7.651,-137.209C17.803,-156.507 22.963,-180.849 23.31,-210.289C23.604,-241.758 15.827,-257.487 0,-257.487M-29.28,-276.411C-18.613,-285.424 -6.842,-293.119 5.97,-299.499C18.443,-305.406 31.37,-308.591 44.707,-309.071C88.142,-308.591 110.001,-277.016 110.232,-214.275C109.36,-165.422 96.14,-127.645 70.508,-100.999C45.81,-74.486 20.524,-61.078 -5.339,-60.767C-27.945,-61.078 -47.546,-69.255 -64.13,-85.34L-89.824,51.584L-175.003,51.584L-108.32,-303.137L-24.583,-303.137L-29.28,-276.411Z" style="fill:white;fill-rule:nonzero;"/>
    </g>
    <g transform="matrix(4.16667,0,0,4.16667,11144.1,5944.57)">
        <path d="M0,-257.487C-5.223,-257.487 -10.499,-255.334 -15.891,-250.992C-21.397,-246.544 -27.083,-239.062 -32.875,-228.572C-44.538,-208.376 -52.243,-174.772 -55.9,-127.761C-49.521,-113.855 -39.085,-106.942 -24.707,-106.942C-19.307,-106.942 -13.631,-109.62 -7.482,-115.029C-1.976,-120.439 3.069,-127.832 7.651,-137.209C17.803,-156.507 22.963,-180.849 23.31,-210.289C23.604,-241.758 15.827,-257.487 0,-257.487ZM-29.28,-276.411C-18.613,-285.424 -6.842,-293.119 5.97,-299.499C18.443,-305.406 31.37,-308.591 44.707,-309.071C88.142,-308.591 110.001,-277.016 110.232,-214.275C109.36,-165.422 96.14,-127.645 70.508,-100.999C45.81,-74.486 20.524,-61.078 -5.339,-60.767C-27.945,-61.078 -47.546,-69.255 -64.13,-85.34L-89.824,51.584L-175.003,51.584L-108.32,-303.137L-24.583,-303.137L-29.28,-276.411Z" style="fill:none;stroke:rgb(3,4,5);stroke-width:10.25px;"/>
    </g>
    <g transform="matrix(4.16667,0,0,4.16667,12329.7,5521.41)">
        <path d="M0,-166.72C-13.168,-165.484 -23.604,-159.149 -31.371,-147.681C-38.969,-136.373 -44.592,-122.458 -48.133,-105.874C-2.322,-104.655 21.334,-117.022 22.847,-143.045C23.425,-150.323 21.69,-156.195 17.455,-160.688C13.104,-164.719 7.304,-166.72 0,-166.72ZM62.625,2.953C46.504,12.634 27.829,21.263 6.672,28.79C-14.378,36.495 -36.478,40.481 -59.788,40.792C-74.922,40.481 -87.448,36.806 -97.422,29.716C-107.796,23.541 -116.203,15.364 -122.582,5.187C-125.714,-0.205 -128.268,-5.454 -130.358,-10.543C-132.44,-15.766 -134.3,-20.926 -135.919,-26.042C-137.138,-31.113 -138.01,-36.042 -138.588,-40.811C-139.229,-45.143 -139.46,-49.218 -139.46,-53.079C-138.304,-80.82 -132.734,-104.611 -122.93,-124.504C-118.348,-134.691 -112.841,-143.713 -106.408,-151.586C-100.313,-159.425 -93.766,-166.355 -86.746,-172.37C-72.483,-184.719 -57.003,-193.714 -40.304,-199.425C-24.066,-204.817 -8.523,-207.512 6.379,-207.512C29.573,-207.512 48.941,-202.744 64.422,-193.189C80.081,-183.464 88.026,-167.352 88.311,-144.843C88.026,-131.898 83.906,-120.723 76.023,-111.328C67.963,-101.15 57.118,-92.716 43.372,-86.105C15.018,-72.217 -16.763,-65.606 -51.959,-66.211C-52.306,-63.747 -52.306,-59.805 -51.959,-54.396C-51.959,-48.702 -50.855,-42.83 -48.596,-36.816C-46.505,-31.113 -42.679,-26.246 -37.226,-22.225C-31.665,-17.447 -23.773,-15.054 -13.452,-15.054C-2.723,-15.054 7.366,-17.136 16.762,-21.318C25.979,-25.01 35.489,-29.565 45.169,-34.956L62.625,2.953Z" style="fill:white;fill-rule:nonzero;stroke:rgb(3,4,5);stroke-width:10.25px;"/>
    </g>
    <g transform="matrix(4.16667,0,0,4.16667,13227.5,5466.69)">
        <path d="M0,-146.355L0.863,-145.438C13.969,-161.675 28.408,-173.998 44.183,-182.45C59.778,-190.421 74.628,-194.38 88.596,-194.38C122.351,-194.38 139.281,-177.45 139.281,-143.57C139.566,-132.609 138.41,-119.504 135.687,-104.281L108.258,48.025L25.854,48.025L52.475,-100.66C53.053,-104.815 53.346,-108.73 53.346,-112.431C52.127,-122.297 49.867,-128.623 46.442,-131.373C42.794,-134.015 39.484,-135.323 36.353,-135.323C28.755,-135.323 22.207,-132.912 16.753,-128.161C10.898,-123.356 5.907,-117.057 1.797,-109.21C-6.264,-92.413 -11.779,-75.215 -14.787,-57.635L-33.523,48.025L-115.918,48.025L-73.302,-188.446L8.461,-188.446L0,-146.355Z" style="fill:white;fill-rule:nonzero;stroke:rgb(3,4,5);stroke-width:10.25px;"/>
    </g>
    <g transform="matrix(4.16667,0,0,4.16667,15294.2,4421.56)">
        <path d="M0,331.091L-64.77,331.091C-89.877,299.827 -115.972,266.713 -143.17,231.774C-170.421,196.809 -192.281,165.225 -208.749,137.057L-209.621,137.057L-209.621,331.091L-285.352,331.091L-285.352,0L-215.244,0C-190.431,30.517 -164.336,63.818 -136.844,99.886C-109.539,135.794 -89.468,165.786 -76.594,189.807L-75.731,189.807L-75.731,0L0,0L0,331.091Z" style="fill:rgb(3,4,4);fill-rule:nonzero;"/>
    </g>
    <g transform="matrix(4.16667,0,0,4.16667,17079.3,4421.56)">
        <path d="M0,331.091L-99.797,331.091L-99.797,99.379L-100.731,99.379C-125.376,183.473 -150.599,260.725 -176.462,331.091L-236.997,331.091C-263.145,260.725 -288.839,183.473 -314.062,99.379L-314.934,99.379L-314.934,331.091L-390.603,331.091L-390.603,0L-258.919,0C-236.881,60.9 -215.021,128.881 -193.277,203.927L-192.343,203.927C-171.417,128.881 -150.189,60.9 -128.738,0L0,0L0,331.091Z" style="fill:rgb(3,4,4);fill-rule:nonzero;"/>
    </g>
    <g transform="matrix(4.16667,0,0,4.16667,17994.3,5517.21)">
        <path d="M0,-194.824C-13.168,-202.991 -28.88,-207.102 -47.207,-207.102C-68.773,-206.488 -79.557,-199.709 -79.557,-186.728C-79.557,-182.555 -77.76,-178.267 -74.05,-173.774C-70.918,-169.13 -66.336,-164.45 -60.429,-159.681C-48.711,-150.26 -34.334,-138.062 -17.456,-123.115C2.784,-103.826 16.584,-86.78 23.888,-71.957C30.907,-56.842 34.271,-40.702 33.924,-23.602C33.924,-16.334 32.411,-7.392 29.279,3.266C25.979,14.37 19.715,25.286 10.489,36.096C1.966,46.755 -10.036,55.536 -25.517,62.484C-41.46,69.886 -61.522,73.748 -85.651,74.032C-104.61,74.032 -122.707,71.515 -139.984,66.444C-157.787,61.701 -173.152,54.166 -186.258,43.899L-156.969,-10.915C-150.012,-5.479 -141.951,-0.462 -132.85,4.165C-123.632,9.583 -113.312,12.297 -102.004,12.297C-91.968,12.297 -82.866,9.423 -74.69,3.729C-66.336,-1.2 -62.048,-9.857 -61.7,-22.223C-61.7,-28.843 -63.444,-35.328 -66.86,-41.663C-70.108,-47.375 -74.574,-52.927 -80.028,-58.345C-91.684,-68.986 -104.317,-79.858 -118.01,-90.997C-135.75,-105.516 -149.665,-119.102 -159.816,-131.762C-170.021,-144.112 -175.119,-160.081 -175.119,-179.699C-174.834,-206.55 -163.232,-228.09 -140.447,-244.309C-119.05,-260.386 -92.431,-268.562 -60.659,-268.856C-39.609,-268.562 -21.344,-265.866 -5.979,-260.795C8.639,-255.724 18.844,-251.035 24.813,-246.764L0,-194.824Z" style="fill:rgb(3,4,4);fill-rule:nonzero;"/>
    </g>
    <g transform="matrix(4.16667,0,0,4.16667,18304,4635.6)">
        <path d="M0,-5.355L7.135,-5.355C13.398,-5.355 17.286,-8.531 17.286,-13.621C17.286,-20.302 11.485,-21.548 4.991,-21.548L0,-21.548L0,-5.355ZM-10.899,-28.914L5.106,-28.914C14.555,-28.914 19.431,-27.535 23.025,-25.053C26.441,-22.678 28.647,-18.905 28.647,-13.905C28.647,-5.773 22.562,-1.699 17.171,0.196L31.317,22.857L19.546,22.857L6.557,1.469L0,1.469L0,22.857L-10.899,22.857L-10.899,-28.914ZM7.02,-39.484C-13.222,-39.484 -29.227,-23.3 -29.227,-2.677C-29.227,17.937 -13.222,34.138 7.251,34.138C27.776,34.138 43.729,17.937 43.729,-2.677C43.729,-23.3 27.723,-39.484 7.251,-39.484L7.02,-39.484ZM7.429,-47.002C32.305,-47.002 51.958,-27.491 51.958,-2.677C51.958,22.127 32.305,41.647 7.251,41.647C-17.803,41.647 -37.519,22.127 -37.519,-2.677C-37.519,-27.491 -17.803,-47.002 7.251,-47.002L7.429,-47.002Z" style="fill:rgb(3,4,5);fill-rule:nonzero;"/>
    </g>
    <g transform="matrix(4.16667,0,0,4.16667,2630.92,3063.03)">
        <path d="M0,-136.221L270.049,-136.221L270.049,-381.127L364.534,-381.127L364.534,244.906L270.049,244.906L270.049,-47.429L0,-47.429L0,244.906L-94.459,244.906L-94.459,-381.127L0,-381.127L0,-136.221Z" style="fill:rgb(77,160,70);fill-rule:nonzero;"/>
    </g>
    <g transform="matrix(4.16667,0,0,4.16667,5041.84,2785.19)">
        <path d="M0,-3.247C0,65.891 23.257,122.742 69.761,167.307C115.972,211.872 169.354,234.15 229.924,234.15C295.593,234.15 350.993,211.463 396.137,166.088C441.279,120.18 463.869,64.281 463.869,-1.619C463.869,-68.337 441.573,-124.237 396.955,-169.353C352.622,-214.727 297.763,-237.414 232.353,-237.414C167.209,-237.414 112.182,-214.727 67.323,-169.353C22.438,-124.513 0,-69.147 0,-3.247M-95.269,-4.262C-95.269,-92.386 -62.973,-168.072 1.629,-231.338C65.962,-294.586 143.259,-326.206 233.545,-326.206C322.755,-326.206 399.269,-294.31 463.06,-230.528C527.117,-166.728 559.129,-90.099 559.129,-0.605C559.129,89.405 527.002,165.759 462.65,228.482C398.05,291.455 320.059,322.959 228.705,322.959C147.867,322.959 75.295,294.978 10.961,239.025C-59.867,177.121 -95.269,96.025 -95.269,-4.262" style="fill:rgb(77,160,70);fill-rule:nonzero;"/>
    </g>
    <g transform="matrix(4.16667,0,0,4.16667,8260.42,2885.69)">
        <path d="M0,-51.095L29.983,-51.095C119.451,-51.095 164.22,-85.277 164.22,-153.677C164.22,-217.735 120.67,-249.772 33.631,-249.772L0,-249.772L0,-51.095ZM117.538,20.677L311.394,287.469L195.822,287.469L16.993,31.211L0,31.211L0,287.469L-94.521,287.469L-94.521,-338.564L16.184,-338.564C98.926,-338.564 158.65,-323.03 195.422,-291.944C235.947,-257.344 256.25,-211.667 256.25,-154.895C256.25,-110.562 243.545,-72.448 218.145,-40.543C192.69,-8.647 159.176,11.762 117.538,20.677" style="fill:rgb(77,160,70);fill-rule:nonzero;"/>
    </g>
    <g transform="matrix(-4.16667,-0,0,4.16667,20293.2,-699.43)">
        <rect x="2387.94" y="521.865" width="94.468" height="626.033" style="fill:rgb(77,160,70);"/>
    </g>
    <g transform="matrix(4.16667,0,0,4.16667,11421.4,1844.97)">
        <path d="M0,448.45L300.432,448.45L300.432,537.242L-155.341,537.242L152.04,0L-105.073,0L-105.073,-88.792L307.336,-88.792L0,448.45Z" style="fill:rgb(77,160,70);fill-rule:nonzero;"/>
    </g>
    <g transform="matrix(4.16667,0,0,4.16667,13399.8,2785.19)">
        <path d="M0,-3.247C0,65.891 23.248,122.742 69.699,167.307C115.972,211.872 169.318,234.15 229.915,234.15C295.557,234.15 350.993,211.463 396.102,166.088C441.28,120.18 463.834,64.281 463.834,-1.619C463.834,-68.337 441.564,-124.237 396.92,-169.353C352.613,-214.727 297.764,-237.414 232.291,-237.414C167.174,-237.414 112.146,-214.727 67.323,-169.353C22.438,-124.513 0,-69.147 0,-3.247M-95.277,-4.262C-95.277,-92.386 -62.981,-168.072 1.62,-231.338C65.927,-294.586 143.224,-326.206 233.51,-326.206C322.755,-326.206 399.232,-294.31 463.023,-230.528C527.1,-166.728 559.111,-90.099 559.111,-0.605C559.111,89.405 526.984,165.759 462.614,228.482C398.022,291.455 320.023,322.959 228.696,322.959C147.867,322.959 75.26,294.978 10.952,239.025C-59.902,177.121 -95.277,96.025 -95.277,-4.262" style="fill:rgb(77,160,70);fill-rule:nonzero;"/>
    </g>
    <g transform="matrix(4.16667,0,0,4.16667,16224.4,1456.47)">
        <path d="M0,630.482L0,-38.132L456.591,439.509L456.591,4.449L551.05,4.449L551.05,668.614L94.521,192.174L94.521,630.482L0,630.482Z" style="fill:rgb(77,160,70);fill-rule:nonzero;"/>
    </g>
</svg>
